<svg width="210" height="68" viewBox="0 0 210 68" fill="none" xmlns="http://www.w3.org/2000/svg">
<rect x="4" y="4" width="60" height="60" rx="30" fill="#F7F6FA"/>
<path d="M88.978 27.364L84.496 40H80.644L76.162 27.364H79.438L82.57 36.904L85.72 27.364H88.978ZM91.8124 28.912C91.2724 28.912 90.8284 28.756 90.4804 28.444C90.1444 28.12 89.9764 27.724 89.9764 27.256C89.9764 26.776 90.1444 26.38 90.4804 26.068C90.8284 25.744 91.2724 25.582 91.8124 25.582C92.3404 25.582 92.7724 25.744 93.1084 26.068C93.4564 26.38 93.6304 26.776 93.6304 27.256C93.6304 27.724 93.4564 28.12 93.1084 28.444C92.7724 28.756 92.3404 28.912 91.8124 28.912ZM93.3424 29.956V40H90.2644V29.956H93.3424ZM99.659 40.144C98.783 40.144 98.003 39.994 97.319 39.694C96.635 39.394 96.095 38.986 95.699 38.47C95.303 37.942 95.081 37.354 95.033 36.706H98.075C98.111 37.054 98.273 37.336 98.561 37.552C98.849 37.768 99.203 37.876 99.623 37.876C100.007 37.876 100.301 37.804 100.505 37.66C100.721 37.504 100.829 37.306 100.829 37.066C100.829 36.778 100.679 36.568 100.379 36.436C100.079 36.292 99.593 36.136 98.921 35.968C98.201 35.8 97.601 35.626 97.121 35.446C96.641 35.254 96.227 34.96 95.879 34.564C95.531 34.156 95.357 33.61 95.357 32.926C95.357 32.35 95.513 31.828 95.825 31.36C96.149 30.88 96.617 30.502 97.229 30.226C97.853 29.95 98.591 29.812 99.443 29.812C100.703 29.812 101.693 30.124 102.413 30.748C103.145 31.372 103.565 32.2 103.673 33.232H100.829C100.781 32.884 100.625 32.608 100.361 32.404C100.109 32.2 99.773 32.098 99.353 32.098C98.993 32.098 98.717 32.17 98.525 32.314C98.333 32.446 98.237 32.632 98.237 32.872C98.237 33.16 98.387 33.376 98.687 33.52C98.999 33.664 99.479 33.808 100.127 33.952C100.871 34.144 101.477 34.336 101.945 34.528C102.413 34.708 102.821 35.008 103.169 35.428C103.529 35.836 103.715 36.388 103.727 37.084C103.727 37.672 103.559 38.2 103.223 38.668C102.899 39.124 102.425 39.484 101.801 39.748C101.189 40.012 100.475 40.144 99.659 40.144ZM107.158 28.912C106.618 28.912 106.174 28.756 105.826 28.444C105.49 28.12 105.322 27.724 105.322 27.256C105.322 26.776 105.49 26.38 105.826 26.068C106.174 25.744 106.618 25.582 107.158 25.582C107.686 25.582 108.118 25.744 108.454 26.068C108.802 26.38 108.976 26.776 108.976 27.256C108.976 27.724 108.802 28.12 108.454 28.444C108.118 28.756 107.686 28.912 107.158 28.912ZM108.688 29.956V40H105.61V29.956H108.688ZM115.491 40.144C114.507 40.144 113.619 39.934 112.827 39.514C112.047 39.094 111.429 38.494 110.973 37.714C110.529 36.934 110.307 36.022 110.307 34.978C110.307 33.946 110.535 33.04 110.991 32.26C111.447 31.468 112.071 30.862 112.863 30.442C113.655 30.022 114.543 29.812 115.527 29.812C116.511 29.812 117.399 30.022 118.191 30.442C118.983 30.862 119.607 31.468 120.063 32.26C120.519 33.04 120.747 33.946 120.747 34.978C120.747 36.01 120.513 36.922 120.045 37.714C119.589 38.494 118.959 39.094 118.155 39.514C117.363 39.934 116.475 40.144 115.491 40.144ZM115.491 37.48C116.079 37.48 116.577 37.264 116.985 36.832C117.405 36.4 117.615 35.782 117.615 34.978C117.615 34.174 117.411 33.556 117.003 33.124C116.607 32.692 116.115 32.476 115.527 32.476C114.927 32.476 114.429 32.692 114.033 33.124C113.637 33.544 113.439 34.162 113.439 34.978C113.439 35.782 113.631 36.4 114.015 36.832C114.411 37.264 114.903 37.48 115.491 37.48ZM128.5 29.848C129.676 29.848 130.612 30.232 131.308 31C132.016 31.756 132.37 32.8 132.37 34.132V40H129.31V34.546C129.31 33.874 129.136 33.352 128.788 32.98C128.44 32.608 127.972 32.422 127.384 32.422C126.796 32.422 126.328 32.608 125.98 32.98C125.632 33.352 125.458 33.874 125.458 34.546V40H122.38V29.956H125.458V31.288C125.77 30.844 126.19 30.496 126.718 30.244C127.246 29.98 127.84 29.848 128.5 29.848ZM137.801 33.664C137.801 32.416 138.071 31.306 138.611 30.334C139.151 29.35 139.901 28.588 140.861 28.048C141.833 27.496 142.931 27.22 144.155 27.22C145.655 27.22 146.939 27.616 148.007 28.408C149.075 29.2 149.789 30.28 150.149 31.648H146.765C146.513 31.12 146.153 30.718 145.685 30.442C145.229 30.166 144.707 30.028 144.119 30.028C143.171 30.028 142.403 30.358 141.815 31.018C141.227 31.678 140.933 32.56 140.933 33.664C140.933 34.768 141.227 35.65 141.815 36.31C142.403 36.97 143.171 37.3 144.119 37.3C144.707 37.3 145.229 37.162 145.685 36.886C146.153 36.61 146.513 36.208 146.765 35.68H150.149C149.789 37.048 149.075 38.128 148.007 38.92C146.939 39.7 145.655 40.09 144.155 40.09C142.931 40.09 141.833 39.82 140.861 39.28C139.901 38.728 139.151 37.966 138.611 36.994C138.071 36.022 137.801 34.912 137.801 33.664ZM151.422 34.96C151.422 33.928 151.614 33.022 151.998 32.242C152.394 31.462 152.928 30.862 153.6 30.442C154.272 30.022 155.022 29.812 155.85 29.812C156.558 29.812 157.176 29.956 157.704 30.244C158.244 30.532 158.658 30.91 158.946 31.378V29.956H162.024V40H158.946V38.578C158.646 39.046 158.226 39.424 157.686 39.712C157.158 40 156.54 40.144 155.832 40.144C155.016 40.144 154.272 39.934 153.6 39.514C152.928 39.082 152.394 38.476 151.998 37.696C151.614 36.904 151.422 35.992 151.422 34.96ZM158.946 34.978C158.946 34.21 158.73 33.604 158.298 33.16C157.878 32.716 157.362 32.494 156.75 32.494C156.138 32.494 155.616 32.716 155.184 33.16C154.764 33.592 154.554 34.192 154.554 34.96C154.554 35.728 154.764 36.34 155.184 36.796C155.616 37.24 156.138 37.462 156.75 37.462C157.362 37.462 157.878 37.24 158.298 36.796C158.73 36.352 158.946 35.746 158.946 34.978ZM167.329 31.378C167.629 30.91 168.043 30.532 168.571 30.244C169.099 29.956 169.717 29.812 170.425 29.812C171.253 29.812 172.003 30.022 172.675 30.442C173.347 30.862 173.875 31.462 174.259 32.242C174.655 33.022 174.853 33.928 174.853 34.96C174.853 35.992 174.655 36.904 174.259 37.696C173.875 38.476 173.347 39.082 172.675 39.514C172.003 39.934 171.253 40.144 170.425 40.144C169.729 40.144 169.111 40 168.571 39.712C168.043 39.424 167.629 39.052 167.329 38.596V44.788H164.251V29.956H167.329V31.378ZM171.721 34.96C171.721 34.192 171.505 33.592 171.073 33.16C170.653 32.716 170.131 32.494 169.507 32.494C168.895 32.494 168.373 32.716 167.941 33.16C167.521 33.604 167.311 34.21 167.311 34.978C167.311 35.746 167.521 36.352 167.941 36.796C168.373 37.24 168.895 37.462 169.507 37.462C170.119 37.462 170.641 37.24 171.073 36.796C171.505 36.34 171.721 35.728 171.721 34.96ZM178.016 28.912C177.476 28.912 177.032 28.756 176.684 28.444C176.348 28.12 176.18 27.724 176.18 27.256C176.18 26.776 176.348 26.38 176.684 26.068C177.032 25.744 177.476 25.582 178.016 25.582C178.544 25.582 178.976 25.744 179.312 26.068C179.66 26.38 179.834 26.776 179.834 27.256C179.834 27.724 179.66 28.12 179.312 28.444C178.976 28.756 178.544 28.912 178.016 28.912ZM179.546 29.956V40H176.468V29.956H179.546ZM187.374 37.39V40H185.808C184.692 40 183.822 39.73 183.198 39.19C182.574 38.638 182.262 37.744 182.262 36.508V32.512H181.038V29.956H182.262V27.508H185.34V29.956H187.356V32.512H185.34V36.544C185.34 36.844 185.412 37.06 185.556 37.192C185.7 37.324 185.94 37.39 186.276 37.39H187.374ZM188.477 34.96C188.477 33.928 188.669 33.022 189.053 32.242C189.449 31.462 189.983 30.862 190.655 30.442C191.327 30.022 192.077 29.812 192.905 29.812C193.613 29.812 194.231 29.956 194.759 30.244C195.299 30.532 195.713 30.91 196.001 31.378V29.956H199.079V40H196.001V38.578C195.701 39.046 195.281 39.424 194.741 39.712C194.213 40 193.595 40.144 192.887 40.144C192.071 40.144 191.327 39.934 190.655 39.514C189.983 39.082 189.449 38.476 189.053 37.696C188.669 36.904 188.477 35.992 188.477 34.96ZM196.001 34.978C196.001 34.21 195.785 33.604 195.353 33.16C194.933 32.716 194.417 32.494 193.805 32.494C193.193 32.494 192.671 32.716 192.239 33.16C191.819 33.592 191.609 34.192 191.609 34.96C191.609 35.728 191.819 36.34 192.239 36.796C192.671 37.24 193.193 37.462 193.805 37.462C194.417 37.462 194.933 37.24 195.353 36.796C195.785 36.352 196.001 35.746 196.001 34.978ZM204.383 26.68V40H201.305V26.68H204.383Z" fill="#23155B"/>
</svg>
